<svg width="102" height="19" viewBox="0 0 102 19" fill="none" xmlns="http://www.w3.org/2000/svg">
<path d="M0.703979 17.9999V1.07992H8.45598C10.264 1.07992 11.656 1.47192 12.632 2.25592C13.624 3.03992 14.12 4.11192 14.12 5.47192C14.12 6.36792 13.896 7.14392 13.448 7.79992C13 8.43992 12.376 8.91992 11.576 9.23992C12.536 9.51192 13.272 9.99192 13.784 10.6799C14.312 11.3679 14.576 12.2159 14.576 13.2239C14.576 14.7279 14.048 15.9039 12.992 16.7519C11.952 17.5839 10.528 17.9999 8.71998 17.9999H0.703979ZM4.25598 8.03992H7.80798C9.63198 8.03992 10.544 7.33592 10.544 5.92792C10.544 4.53592 9.63198 3.83992 7.80798 3.83992H4.25598V8.03992ZM4.25598 15.2399H8.21598C9.17598 15.2399 9.87998 15.0559 10.328 14.6879C10.776 14.3199 11 13.7599 11 13.0079C11 12.2719 10.776 11.7199 10.328 11.3519C9.87998 10.9839 9.17598 10.7999 8.21598 10.7999H4.25598V15.2399Z" fill="#443737"/>
<path d="M24.6395 18.2639C22.2395 18.2639 20.4075 17.6479 19.1435 16.4159C17.8955 15.1839 17.2715 13.3519 17.2715 10.9199V1.07992H20.9915V10.9439C20.9915 12.3199 21.3035 13.3599 21.9275 14.0639C22.5515 14.7519 23.4555 15.0959 24.6395 15.0959C27.0555 15.0959 28.2635 13.7119 28.2635 10.9439V1.07992H31.9355V10.9199C31.9355 13.3519 31.3195 15.1839 30.0875 16.4159C28.8555 17.6479 27.0395 18.2639 24.6395 18.2639Z" fill="#443737"/>
<path d="M35.2274 17.9999V1.07992H42.9554C44.8434 1.07992 46.2994 1.53592 47.3234 2.44792C48.3474 3.35992 48.8594 4.63192 48.8594 6.26392C48.8594 7.52792 48.5314 8.58392 47.8754 9.43192C47.2354 10.2639 46.3154 10.8319 45.1154 11.1359C45.9634 11.3919 46.6594 12.0079 47.2034 12.9839L49.9394 17.9999H45.8354L42.9074 12.5999C42.6674 12.1679 42.3714 11.8719 42.0194 11.7119C41.6674 11.5359 41.2514 11.4479 40.7714 11.4479H38.9474V17.9999H35.2274ZM38.9474 8.75992H42.2834C44.2834 8.75992 45.2834 7.95992 45.2834 6.35992C45.2834 4.77592 44.2834 3.98392 42.2834 3.98392H38.9474V8.75992Z" fill="#443737"/>
<path d="M60.1972 18.2639C58.2932 18.2639 56.6772 17.9039 55.3492 17.1839C54.0372 16.4639 53.0372 15.4559 52.3492 14.1599C51.6612 12.8639 51.3172 11.3439 51.3172 9.59992C51.3172 7.80792 51.6692 6.25592 52.3732 4.94392C53.0932 3.63192 54.1252 2.61592 55.4692 1.89592C56.8132 1.17592 58.4292 0.815918 60.3172 0.815918C61.5012 0.815918 62.6212 0.983918 63.6772 1.31992C64.7492 1.65592 65.6212 2.10392 66.2932 2.66392L65.0932 5.56792C64.3572 5.02392 63.6052 4.63992 62.8372 4.41592C62.0692 4.17592 61.2372 4.05592 60.3412 4.05592C58.6292 4.05592 57.3412 4.53592 56.4772 5.49592C55.6292 6.43992 55.2052 7.80792 55.2052 9.59992C55.2052 11.4079 55.6372 12.7759 56.5012 13.7039C57.3812 14.6319 58.6772 15.0959 60.3892 15.0959C61.3012 15.0959 62.2612 14.9519 63.2692 14.6639V11.3519H59.6212V8.66392H66.3412V16.9679C65.5092 17.3839 64.5492 17.7039 63.4612 17.9279C62.3732 18.1519 61.2852 18.2639 60.1972 18.2639Z" fill="#443737"/>
<path d="M77.4817 18.2639C75.8177 18.2639 74.3537 17.9039 73.0897 17.1839C71.8417 16.4479 70.8657 15.4319 70.1617 14.1359C69.4737 12.8239 69.1297 11.2879 69.1297 9.52792C69.1297 7.76792 69.4737 6.23992 70.1617 4.94392C70.8657 3.63192 71.8417 2.61592 73.0897 1.89592C74.3377 1.17592 75.8017 0.815918 77.4817 0.815918C79.1617 0.815918 80.6257 1.17592 81.8737 1.89592C83.1377 2.61592 84.1137 3.63192 84.8017 4.94392C85.5057 6.23992 85.8577 7.75992 85.8577 9.50392C85.8577 11.2639 85.5057 12.7999 84.8017 14.1119C84.1137 15.4239 83.1377 16.4479 81.8737 17.1839C80.6257 17.9039 79.1617 18.2639 77.4817 18.2639ZM77.4817 15.0959C78.8897 15.0959 79.9857 14.6079 80.7697 13.6319C81.5697 12.6399 81.9697 11.2719 81.9697 9.52792C81.9697 7.76792 81.5777 6.40792 80.7937 5.44792C80.0097 4.47192 78.9057 3.98392 77.4817 3.98392C76.0897 3.98392 74.9937 4.47192 74.1937 5.44792C73.4097 6.40792 73.0177 7.76792 73.0177 9.52792C73.0177 11.2719 73.4097 12.6399 74.1937 13.6319C74.9937 14.6079 76.0897 15.0959 77.4817 15.0959Z" fill="#443737"/>
<path d="M94.7832 18.2639C93.4552 18.2639 92.1992 18.0959 91.0152 17.7599C89.8472 17.4239 88.8712 16.9679 88.0872 16.3919L89.1672 13.4639C89.9192 13.9919 90.7752 14.4079 91.7352 14.7119C92.7112 15.0159 93.7272 15.1679 94.7832 15.1679C95.9352 15.1679 96.7592 14.9919 97.2552 14.6399C97.7672 14.2719 98.0232 13.8159 98.0232 13.2719C98.0232 12.8079 97.8472 12.4399 97.4952 12.1679C97.1432 11.8959 96.5272 11.6639 95.6472 11.4719L92.9352 10.8959C89.9112 10.2559 88.3992 8.68792 88.3992 6.19192C88.3992 5.11992 88.6872 4.18392 89.2632 3.38392C89.8392 2.56792 90.6392 1.93592 91.6632 1.48792C92.7032 1.03992 93.9032 0.815918 95.2632 0.815918C96.4312 0.815918 97.5272 0.983918 98.5512 1.31992C99.5752 1.65592 100.423 2.12792 101.095 2.73592L100.015 5.47192C98.7032 4.43192 97.1112 3.91192 95.2392 3.91192C94.2312 3.91192 93.4472 4.11192 92.8872 4.51192C92.3432 4.89592 92.0712 5.39992 92.0712 6.02392C92.0712 6.48792 92.2392 6.86392 92.5752 7.15192C92.9112 7.43992 93.4952 7.67192 94.3272 7.84792L97.0392 8.42392C100.143 9.09592 101.695 10.6159 101.695 12.9839C101.695 14.0399 101.407 14.9679 100.831 15.7679C100.271 16.5519 99.4712 17.1679 98.4312 17.6159C97.4072 18.0479 96.1912 18.2639 94.7832 18.2639Z" fill="#443737"/>
</svg>
