<svg width="42" height="42" viewBox="0 0 42 42" fill="none" xmlns="http://www.w3.org/2000/svg">
<path fill-rule="evenodd" clip-rule="evenodd" d="M19.5 0H22.5C33.2644 0.0123925 41.9876 8.7356 42 19.5C42 20.3284 41.3284 21 40.5 21H1.50003C0.671572 21 0 20.3284 0 19.5C0.0123926 8.7356 8.73562 0.0123925 19.5 0ZM19.4999 2.99996C10.9723 3.01016 3.8533 9.5086 3.06747 18H38.9324C38.1467 9.50851 31.0277 3.01016 22.5 2.99996H19.4999Z" fill="#443737"/>
<path fill-rule="evenodd" clip-rule="evenodd" d="M34.5 30.1084H40.5001C41.3285 30.1084 42.0001 30.7739 42 31.5949V34.5677C41.9951 38.6704 38.6401 41.9951 34.5 42H7.49998C3.35989 41.9951 0.00492188 38.6704 0 34.5677V31.5949C0 30.7739 0.671573 30.1084 1.50003 30.1084H22.4999C22.8245 30.1084 23.1403 30.2127 23.3999 30.4057L28.5 34.1961L33.6 30.4057C33.8596 30.2127 34.1754 30.1084 34.5 30.1084ZM34.5 39.0271C36.9853 39.0271 39 37.0306 39 34.5677V33.0813H34.9995L29.4 37.2434C28.8667 37.6397 28.1333 37.6397 27.6 37.2434L22.0005 33.0813H2.99997V34.5677C2.99997 37.0306 5.01469 39.0271 7.49998 39.0271H34.5Z" fill="#443737"/>
<path d="M40.5 24.0361H1.50003C0.671572 24.0361 0 24.7158 0 25.5542C0 26.3925 0.671572 27.0723 1.50003 27.0723H40.5C41.3284 27.0723 42 26.3926 42 25.5542C42 24.7157 41.3284 24.0361 40.5 24.0361Z" fill="#443737"/>
<path d="M13.4096 8.85547C12.5712 8.85547 11.8915 9.53512 11.8915 10.3735V11.8916C11.8915 12.73 12.5712 13.4097 13.4096 13.4097C14.248 13.4097 14.9277 12.73 14.9277 11.8916V10.3735C14.9277 9.53512 14.248 8.85547 13.4096 8.85547Z" fill="#443737"/>
<path d="M21 8.85547C20.1616 8.85547 19.4819 9.53512 19.4819 10.3735V11.8916C19.4819 12.73 20.1616 13.4097 21 13.4097C21.8384 13.4097 22.5181 12.7299 22.5181 11.8915V10.3735C22.5181 9.53512 21.8384 8.85547 21 8.85547Z" fill="#443737"/>
<path d="M28.5903 8.85547C27.7519 8.85547 27.0723 9.53512 27.0723 10.3735V11.8916C27.0723 12.73 27.7519 13.4097 28.5903 13.4097C29.4288 13.4097 30.1084 12.73 30.1084 11.8916V10.3735C30.1083 9.53512 29.4287 8.85547 28.5903 8.85547Z" fill="#443737"/>
</svg>
